<?xml version="1.0" encoding="utf-8"?>
<!-- Generator: Adobe Illustrator 20.1.0, SVG Export Plug-In . SVG Version: 6.00 Build 0)  -->
<svg version="1.1" xmlns="http://www.w3.org/2000/svg" xmlns:xlink="http://www.w3.org/1999/xlink" x="0px" y="0px"
	 viewBox="0 0 208.3 85.3" style="enable-background:new 0 0 208.3 85.3;" xml:space="preserve">
<style type="text/css">
	.st0{display:none;}
	.st1{display:inline;}
	.st2{font-family:'ArialRoundedMTBold';}
	.st3{font-size:67.6162px;}
	.st4{letter-spacing:12;}
	.st5{enable-background:new    ;}
	.st6{fill:#FFFFFF;}
</style>
<g id="Layer_3">
</g>
<g id="Layer_2_1_">
</g>
<g id="Layer_1">
	<g id="Layer_2" class="st0">
		<text transform="matrix(1 0 0 1 16.5385 139.3488)" class="st1 st2 st3">SAML</text>
		<text transform="matrix(1 0 0 1 207.4385 139.3488)" class="st1 st2 st3 st4">E</text>
		<text transform="matrix(1 0 0 1 266.3385 139.3488)" class="st2 st3" style="display:inline;fill:#FFFFFF;">DB</text>
	</g>
	<g>
		<path class="st6" d="M472.2,195.7c0,1.9-0.5,3.7-1.5,5.3c-1,1.5-2.5,2.8-4.4,3.7c-1.9,0.9-4.3,1.3-6.9,1.3c-3.2,0-5.8-0.6-7.9-1.8
			c-1.5-0.9-2.7-2-3.6-3.5s-1.4-2.9-1.4-4.2c0-0.8,0.3-1.5,0.8-2.1c0.5-0.5,1.3-0.9,2.1-0.9c0.7,0,1.3,0.2,1.7,0.7
			c0.5,0.5,0.9,1.1,1.2,1.9c0.4,1,0.9,1.9,1.3,2.6c0.5,0.7,1.1,1.3,2,1.7c0.9,0.5,2,0.7,3.4,0.7c1.9,0,3.5-0.5,4.7-1.3
			c1.2-0.9,1.8-2,1.8-3.4c0-1.1-0.3-1.9-1-2.6c-0.7-0.7-1.5-1.2-2.5-1.5c-1.1-0.3-2.4-0.7-4.1-1.1c-2.3-0.5-4.3-1.2-5.8-1.9
			c-1.5-0.7-2.8-1.7-3.7-3c-0.9-1.3-1.4-2.8-1.4-4.7c0-1.8,0.5-3.3,1.5-4.7c1-1.4,2.4-2.5,4.2-3.2c1.9-0.7,4-1.1,6.5-1.1
			c2,0,3.7,0.3,5.1,0.7c1.5,0.5,2.7,1.1,3.6,1.9c0.9,0.8,1.7,1.7,2.1,2.5c0.5,0.9,0.7,1.8,0.7,2.6c0,0.8-0.3,1.5-0.8,2.1
			c-0.5,0.6-1.3,0.9-2.1,0.9c-0.7,0-1.3-0.2-1.7-0.5c-0.4-0.4-0.8-1-1.3-1.9c-0.6-1.2-1.3-2.2-2.1-2.9c-0.8-0.7-2.1-1-3.9-1
			c-1.7,0-3.1,0.4-4.1,1.1c-1.1,0.7-1.5,1.6-1.5,2.7c0,0.7,0.2,1.2,0.5,1.7s0.9,0.9,1.5,1.2c0.6,0.3,1.3,0.6,1.9,0.8
			c0.6,0.2,1.7,0.5,3.1,0.9c1.8,0.4,3.5,0.9,4.9,1.4c1.5,0.5,2.7,1.1,3.7,1.9c1.1,0.7,1.9,1.7,2.4,2.8
			C471.9,192.7,472.2,194.1,472.2,195.7z"/>
		<path class="st6" d="M498.4,201.7l-1.5-4.1h-13.2l-1.5,4.1c-0.6,1.6-1.1,2.7-1.5,3.3s-1.1,0.9-2.1,0.9c-0.8,0-1.5-0.3-2.2-0.9
			c-0.7-0.6-0.9-1.3-0.9-2.1c0-0.5,0.1-0.9,0.2-1.3c0.1-0.5,0.4-1.1,0.7-1.9l8.3-21c0.3-0.6,0.5-1.3,0.9-2.2
			c0.3-0.9,0.7-1.5,1.1-2.1c0.4-0.5,0.9-1,1.5-1.3c0.6-0.3,1.3-0.5,2.3-0.5c0.9,0,1.7,0.2,2.3,0.5c0.6,0.3,1.1,0.8,1.5,1.3
			c0.4,0.5,0.7,1.1,0.9,1.7s0.6,1.5,1,2.5l8.4,20.9c0.7,1.6,1,2.7,1,3.5c0,0.7-0.3,1.5-0.9,2.1s-1.4,0.9-2.3,0.9
			c-0.5,0-0.9-0.1-1.3-0.3c-0.4-0.2-0.7-0.4-0.9-0.7s-0.5-0.8-0.8-1.5S498.6,202.2,498.4,201.7z M485.5,192.8h9.7l-4.9-13.4
			L485.5,192.8z"/>
		<path class="st6" d="M521.1,200.5l-5.2-20.6v22.3c0,1.2-0.3,2.1-0.8,2.8c-0.5,0.6-1.3,0.9-2.2,0.9c-0.9,0-1.6-0.3-2.1-0.9
			s-0.9-1.5-0.9-2.8v-25.6c0-1.4,0.3-2.3,1.1-2.9c0.7-0.5,1.7-0.7,3-0.7h2c1.2,0,2.1,0.1,2.7,0.3s0.9,0.6,1.2,1.2
			c0.3,0.6,0.5,1.5,0.9,2.8l4.7,17.7l4.7-17.7c0.3-1.3,0.7-2.2,0.9-2.8c0.3-0.6,0.7-1,1.2-1.2s1.5-0.3,2.7-0.3h2
			c1.3,0,2.3,0.3,3,0.7c0.7,0.5,1.1,1.5,1.1,2.9v25.6c0,1.2-0.3,2.1-0.8,2.8c-0.5,0.6-1.3,0.9-2.2,0.9c-0.9,0-1.6-0.3-2.1-0.9
			s-0.9-1.5-0.9-2.8v-22.4l-5.3,20.6c-0.3,1.3-0.6,2.3-0.8,2.9c-0.2,0.6-0.6,1.2-1.2,1.7c-0.6,0.5-1.3,0.8-2.4,0.8
			c-0.7,0-1.4-0.1-1.9-0.5s-0.9-0.7-1.2-1.3c-0.3-0.5-0.5-1.1-0.7-1.7C521.5,201.9,521.3,201.2,521.1,200.5z"/>
		<path class="st6" d="M554.3,176.5V200h13.3c1.1,0,1.9,0.3,2.4,0.8c0.5,0.5,0.9,1.1,0.9,1.9c0,0.8-0.3,1.5-0.9,1.9
			c-0.5,0.5-1.4,0.7-2.5,0.7h-15.8c-1.4,0-2.5-0.3-3.1-0.9c-0.6-0.6-0.9-1.7-0.9-3.1v-24.9c0-1.3,0.3-2.3,0.9-3c0.6-0.7,1.4-1,2.3-1
			c1,0,1.8,0.3,2.4,1C553.9,174.1,554.3,175.1,554.3,176.5z"/>
		<path class="st6" d="M596.4,178.1h-14.8v7.9h13.6c1,0,1.7,0.2,2.3,0.7c0.5,0.5,0.7,1.1,0.7,1.8s-0.3,1.3-0.7,1.8
			c-0.5,0.5-1.2,0.7-2.3,0.7h-13.6v9.2h15.2c1,0,1.8,0.3,2.3,0.7c0.5,0.5,0.8,1.1,0.8,1.9c0,0.7-0.3,1.4-0.8,1.9
			c-0.5,0.5-1.3,0.7-2.3,0.7h-17.8c-1.4,0-2.5-0.3-3.1-0.9c-0.6-0.6-0.9-1.7-0.9-3.1v-24.4c0-0.9,0.1-1.7,0.4-2.3
			c0.3-0.6,0.7-1,1.3-1.3c0.6-0.3,1.3-0.4,2.3-0.4h17.3c1.1,0,1.8,0.2,2.3,0.7c0.5,0.5,0.7,1.1,0.7,1.8s-0.3,1.4-0.7,1.9
			C598.2,177.9,597.5,178.1,596.4,178.1z"/>
	</g>
	<path class="st6" d="M67.6,53.6c0,2.7-0.7,5.2-2.2,7.4c-1.4,2.2-3.5,3.9-6.2,5.1c-2.7,1.2-6,1.9-9.6,1.9c-4.5,0-8.1-0.8-11-2.5
		c-2.1-1.2-3.7-2.8-5-4.9c-1.3-2.1-2-4-2-5.9c0-1.1,0.4-2.1,1.1-2.9c0.7-0.7,1.8-1.2,3-1.2c0.9,0,1.8,0.3,2.4,0.9
		c0.7,0.7,1.2,1.5,1.7,2.7c0.6,1.4,1.2,2.6,1.9,3.6c0.7,0.9,1.6,1.8,2.8,2.4c1.2,0.7,2.8,0.9,4.8,0.9c2.7,0,5-0.7,6.6-1.9
		c1.7-1.3,2.5-2.8,2.5-4.8c0-1.5-0.5-2.7-1.4-3.6s-2.1-1.7-3.6-2.2c-1.5-0.5-3.4-1-5.8-1.6c-3.3-0.7-6-1.7-8.1-2.7
		c-2.2-1-3.9-2.4-5.2-4.2c-1.3-1.8-2-3.9-2-6.5c0-2.5,0.7-4.7,2.1-6.6c1.4-2,3.4-3.5,5.9-4.5c2.6-1,5.6-1.6,9.1-1.6
		c2.8,0,5.1,0.4,7.2,1c2.1,0.7,3.7,1.6,5,2.7c1.3,1.1,2.3,2.3,2.9,3.6c0.7,1.2,0.9,2.5,0.9,3.6c0,1.1-0.4,2.1-1.1,3
		c-0.7,0.8-1.8,1.3-2.9,1.3c-1,0-1.9-0.3-2.4-0.7c-0.6-0.6-1.1-1.4-1.8-2.6c-0.8-1.7-1.8-3.1-3-4c-1.1-0.9-3-1.4-5.5-1.4
		c-2.3,0-4.3,0.6-5.7,1.6c-1.5,1-2.2,2.2-2.2,3.7c0,0.9,0.3,1.7,0.7,2.3c0.5,0.7,1.2,1.2,2.1,1.7c0.8,0.5,1.8,0.8,2.6,1.1
		c0.8,0.3,2.3,0.7,4.4,1.2c2.5,0.6,4.9,1.2,6.9,2c2.1,0.7,3.8,1.6,5.2,2.6c1.5,1,2.6,2.3,3.4,3.9C67.2,49.3,67.6,51.3,67.6,53.6z"/>
	<g>
		<path class="st6" d="M120,28.9c-2-0.6-4.6-1-7.5-1h-6.2v31.9h7.2c1.5,0,2.8,0,3.7-0.1s1.8-0.3,2.8-0.7c1-0.4,1.7-0.8,2.5-1.5
			c3.2-2.7,4.7-7.3,4.7-13.9c0-4.6-0.7-8.1-2.1-10.4C123.8,31.1,122.1,29.6,120,28.9z"/>
		<path class="st6" d="M169,39.1c1.3-0.5,2.2-1.3,3-2.5c0.5-0.9,0.8-1.9,0.8-3c0-2.3-0.9-4-2.5-4.7c-1.6-0.8-4.3-1.2-7.7-1.2h-7.7
			v12.1h8.7C165.9,39.8,167.8,39.5,169,39.1z"/>
		<path class="st6" d="M172.2,48.1c-1.6-1.1-4.2-1.6-7.5-1.6h-9.9v13.7h10.2c6.4,0,9.6-2.3,9.6-7C174.8,50.9,173.9,49.2,172.2,48.1z
			"/>
		<path class="st6" d="M165.1,2.3H81.8v81.1h83.3c22.3,0,40.6-18.2,40.6-40.6l0,0C205.6,20.6,187.4,2.3,165.1,2.3z M136.2,51.5
			c-0.5,2.3-1.3,4.5-2.2,6.3c-1.1,1.8-2.3,3.5-4,5c-1.3,1.2-2.6,2-4.2,2.7c-1.5,0.7-3.1,1.2-4.8,1.5s-3.7,0.4-5.8,0.4h-12.4
			c-1.7,0-3-0.3-3.9-0.8c-0.9-0.5-1.5-1.3-1.7-2.2c-0.3-1-0.4-2.2-0.4-3.7V26.3c0-2,0.5-3.5,1.4-4.5c0.9-0.9,2.4-1.4,4.5-1.4h12.5
			c3.2,0,6,0.3,8.3,0.9s4.4,1.7,6.3,3.4c4.8,4.2,7.4,10.6,7.4,19.1C136.9,46.7,136.7,49.2,136.2,51.5z M182.3,61.1
			c-1.4,2.1-3.2,3.7-5.4,4.6c-1.5,0.6-3.1,1.1-4.9,1.3c-1.8,0.3-4,0.4-6.5,0.4h-14.3c-2,0-3.6-0.5-4.5-1.4c-0.9-1-1.4-2.4-1.4-4.5
			V26.3c0-2,0.5-3.6,1.4-4.5c0.9-0.9,2.3-1.4,4.4-1.4h15.2c2.2,0,4.2,0.1,5.8,0.4s3.1,0.8,4.5,1.6c1.1,0.7,2.1,1.5,2.9,2.5
			c0.9,1,1.5,2.1,1.9,3.4c0.5,1.3,0.7,2.5,0.7,3.9c0,4.6-2.3,8.1-7.1,10.3c6.2,1.9,9.2,5.8,9.2,11.4C184.4,56.6,183.7,59,182.3,61.1
			z"/>
	</g>
	<g>
		<path class="st6" d="M80,7.5v71.1H43.2c-19.6,0-35.6-16-35.6-35.6C7.7,23.4,23.7,7.5,43.2,7.5H80 M85,2.5H43.2
			C20.9,2.5,2.7,20.8,2.6,43c0,22.4,18.3,40.6,40.6,40.6H85V2.5L85,2.5z"/>
	</g>
</g>
</svg>
