<?xml version="1.0" encoding="utf-8"?>
<!-- Generator: Adobe Illustrator 20.1.0, SVG Export Plug-In . SVG Version: 6.00 Build 0)  -->
<svg version="1.1" id="Layer_1" xmlns="http://www.w3.org/2000/svg" xmlns:xlink="http://www.w3.org/1999/xlink" x="0px" y="0px"
	 viewBox="0 0 402.3 101.2" style="enable-background:new 0 0 402.3 101.2;" xml:space="preserve">
<style type="text/css">
	.st0{fill:none;stroke:#FFFFFF;stroke-width:4;stroke-miterlimit:10;}
	.st1{fill:#FFFFFF;}
	.st2{display:none;}
	.st3{display:inline;}
	.st4{font-family:'ArialRoundedMTBold';}
	.st5{font-size:67.6162px;}
	.st6{letter-spacing:12;}
	.st7{display:inline;fill:#FFFFFF;}
</style>
<path class="st0" d="M353.6,91.9H46.5C23.4,91.9,4.6,73,4.6,50l0,0c0-23,18.8-41.9,41.9-41.9h307.1c23,0,41.9,18.8,41.9,41.9l0,0
	C395.4,73,376.6,91.9,353.6,91.9z"/>
<path class="st1" d="M69.6,60.4c0,2.9-0.8,5.6-2.3,7.9s-3.7,4.2-6.6,5.5c-2.9,1.3-6.4,2-10.3,2c-4.8,0-8.7-0.9-11.8-2.7
	c-2.2-1.3-4-3-5.4-5.2c-1.4-2.2-2.1-4.3-2.1-6.3c0-1.2,0.4-2.2,1.2-3.1c0.8-0.8,1.9-1.3,3.2-1.3c1,0,1.9,0.3,2.6,1
	c0.7,0.7,1.3,1.6,1.8,2.9c0.6,1.5,1.3,2.8,2,3.9c0.7,1,1.7,1.9,3,2.6s3,1,5.1,1c2.9,0,5.3-0.7,7.1-2c1.8-1.4,2.7-3,2.7-5.1
	c0-1.6-0.5-2.9-1.5-3.9s-2.2-1.8-3.8-2.3s-3.6-1.1-6.2-1.7c-3.5-0.8-6.4-1.8-8.7-2.9c-2.3-1.1-4.2-2.6-5.6-4.5s-2.1-4.2-2.1-7
	c0-2.7,0.7-5,2.2-7.1s3.6-3.7,6.3-4.8c2.8-1.1,6-1.7,9.7-1.7c3,0,5.5,0.4,7.7,1.1s4,1.7,5.4,2.9c1.4,1.2,2.5,2.5,3.1,3.8
	c0.7,1.3,1,2.7,1,3.9s-0.4,2.2-1.2,3.2c-0.8,0.9-1.9,1.4-3.1,1.4c-1.1,0-2-0.3-2.6-0.8c-0.6-0.6-1.2-1.5-1.9-2.8
	c-0.9-1.8-1.9-3.3-3.2-4.3c-1.2-1-3.2-1.5-5.9-1.5c-2.5,0-4.6,0.6-6.1,1.7c-1.6,1.1-2.3,2.4-2.3,4c0,1,0.3,1.8,0.8,2.5
	s1.3,1.3,2.2,1.8s1.9,0.9,2.8,1.2c0.9,0.3,2.5,0.7,4.7,1.3c2.7,0.6,5.2,1.3,7.4,2.1s4.1,1.7,5.6,2.8c1.6,1.1,2.8,2.5,3.6,4.2
	C69.2,55.8,69.6,57.9,69.6,60.4z"/>
<path class="st1" d="M108.9,69.4l-2.3-6.1H86.9l-2.3,6.2c-0.9,2.4-1.7,4.1-2.3,4.9c-0.6,0.8-1.7,1.3-3.1,1.3c-1.2,0-2.3-0.5-3.3-1.4
	s-1.4-1.9-1.4-3.1c0-0.7,0.1-1.3,0.3-2c0.2-0.7,0.6-1.7,1.1-2.9l12.4-31.4c0.4-0.9,0.8-2,1.3-3.3c0.5-1.3,1-2.3,1.6-3.2
	c0.6-0.8,1.3-1.5,2.2-2c0.9-0.5,2-0.8,3.4-0.8s2.5,0.3,3.4,0.8s1.7,1.2,2.2,2c0.6,0.8,1,1.7,1.4,2.6s0.9,2.2,1.5,3.7L117.9,66
	c1,2.4,1.5,4.1,1.5,5.2s-0.5,2.2-1.4,3.1s-2.1,1.4-3.4,1.4c-0.8,0-1.4-0.1-2-0.4s-1-0.6-1.4-1.1S110.4,73,110,72
	S109.2,70.1,108.9,69.4z M89.5,56H104l-7.3-20L89.5,56z"/>
<path class="st1" d="M142.9,67.6l-7.8-30.8v33.4c0,1.8-0.4,3.2-1.2,4.2c-0.8,0.9-1.9,1.4-3.3,1.4c-1.3,0-2.4-0.5-3.2-1.4
	s-1.3-2.3-1.3-4.2V31.9c0-2.1,0.5-3.5,1.7-4.3c1.1-0.7,2.6-1.1,4.5-1.1h3c1.8,0,3.2,0.2,4,0.5s1.4,0.9,1.8,1.8
	c0.4,0.9,0.8,2.3,1.4,4.2l7,26.5l7-26.5c0.5-1.9,1-3.3,1.4-4.2c0.4-0.9,1-1.5,1.8-1.8s2.2-0.5,4-0.5h3c1.9,0,3.4,0.4,4.5,1.1
	s1.7,2.2,1.7,4.3v38.3c0,1.8-0.4,3.2-1.2,4.2c-0.8,0.9-1.9,1.4-3.3,1.4c-1.3,0-2.4-0.5-3.2-1.4s-1.3-2.3-1.3-4.2V36.7L156,67.6
	c-0.5,2-0.9,3.5-1.2,4.4s-0.9,1.8-1.8,2.6c-0.9,0.8-2,1.2-3.6,1.2c-1.1,0-2.1-0.2-2.9-0.7s-1.4-1.1-1.8-1.9c-0.4-0.8-0.8-1.6-1-2.6
	C143.4,69.6,143.2,68.6,142.9,67.6z"/>
<path class="st1" d="M192.5,31.6v35.2h19.9c1.6,0,2.8,0.4,3.6,1.2c0.8,0.8,1.3,1.7,1.3,2.9c0,1.2-0.4,2.2-1.3,2.9
	c-0.8,0.7-2.1,1.1-3.7,1.1h-23.7c-2.1,0-3.7-0.5-4.6-1.4s-1.4-2.5-1.4-4.6V31.6c0-2,0.4-3.5,1.3-4.5c0.9-1,2.1-1.5,3.5-1.5
	c1.5,0,2.7,0.5,3.6,1.5C192,28.1,192.5,29.6,192.5,31.6z"/>
<path class="st1" d="M255.6,34h-22.1v11.9h20.3c1.5,0,2.6,0.3,3.4,1c0.7,0.7,1.1,1.6,1.1,2.7c0,1.1-0.4,2-1.1,2.7s-1.8,1-3.4,1
	h-20.3v13.8h22.8c1.5,0,2.7,0.4,3.5,1.1s1.2,1.7,1.2,2.9c0,1.1-0.4,2.1-1.2,2.8c-0.8,0.7-1.9,1.1-3.5,1.1h-26.6
	c-2.1,0-3.7-0.5-4.6-1.4s-1.4-2.5-1.4-4.6V32.5c0-1.4,0.2-2.6,0.6-3.5c0.4-0.9,1.1-1.5,2-1.9s2-0.6,3.4-0.6h25.9
	c1.6,0,2.7,0.3,3.5,1s1.1,1.6,1.1,2.7s-0.4,2.1-1.1,2.8C258.3,33.7,257.2,34,255.6,34z"/>
<g>
	<path class="st1" d="M310.1,35.6c-2.1-0.6-4.7-1-7.7-1H296v32.9h7.4c1.6,0,2.9,0,3.8-0.1s1.9-0.3,2.9-0.7s1.8-0.8,2.6-1.5
		c3.3-2.8,4.9-7.5,4.9-14.3c0-4.8-0.7-8.4-2.2-10.7C314,37.8,312.2,36.3,310.1,35.6z"/>
	<path class="st1" d="M360.7,46.1c1.3-0.5,2.3-1.3,3.1-2.6c0.5-0.9,0.8-2,0.8-3.1c0-2.4-0.9-4.1-2.6-4.9c-1.7-0.8-4.4-1.2-8-1.2h-8
		v12.5h9C357.5,46.8,359.4,46.5,360.7,46.1z"/>
	<path class="st1" d="M364,55.4c-1.7-1.1-4.3-1.7-7.7-1.7h-10.2v14.1h10.5c6.6,0,9.9-2.4,9.9-7.2C366.6,58.3,365.7,56.5,364,55.4z"
		/>
	<path class="st1" d="M356.6,8.1h-86v83.7h86c23,0,41.9-18.8,41.9-41.9l0,0C398.4,27,379.6,8.1,356.6,8.1z M326.8,58.9
		c-0.5,2.4-1.3,4.6-2.3,6.5c-1.1,1.9-2.4,3.6-4.1,5.2c-1.3,1.2-2.7,2.1-4.3,2.8c-1.5,0.7-3.2,1.2-5,1.5s-3.8,0.4-6,0.4h-12.8
		c-1.8,0-3.1-0.3-4-0.8s-1.5-1.3-1.8-2.3s-0.4-2.3-0.4-3.8V32.9c0-2.1,0.5-3.6,1.4-4.6c0.9-0.9,2.5-1.4,4.6-1.4H305
		c3.3,0,6.2,0.3,8.6,0.9s4.5,1.8,6.5,3.5c5,4.3,7.6,10.9,7.6,19.7C327.5,53.9,327.3,56.5,326.8,58.9z M374.4,68.8
		c-1.4,2.2-3.3,3.8-5.6,4.8c-1.5,0.6-3.2,1.1-5.1,1.3c-1.9,0.3-4.1,0.4-6.7,0.4h-14.8c-2.1,0-3.7-0.5-4.6-1.4
		c-0.9-1-1.4-2.5-1.4-4.6V32.9c0-2.1,0.5-3.7,1.4-4.6s2.4-1.4,4.5-1.4h15.7c2.3,0,4.3,0.1,6,0.4s3.2,0.8,4.6,1.7
		c1.1,0.7,2.2,1.5,3,2.6c0.9,1,1.6,2.2,2,3.5c0.5,1.3,0.7,2.6,0.7,4c0,4.8-2.4,8.4-7.3,10.6c6.4,2,9.5,6,9.5,11.8
		C376.5,64.2,375.8,66.6,374.4,68.8z"/>
</g>
<g id="Layer_2" class="st2">
	<text transform="matrix(1 0 0 1 25.5385 74.8788)" class="st3 st4 st5">SAML</text>
	<text transform="matrix(1 0 0 1 216.4385 74.8788)" class="st3 st4 st5 st6">E</text>
	<text transform="matrix(1 0 0 1 275.3385 74.8788)" class="st7 st4 st5">DB</text>
</g>
</svg>
